<svg id="Calque_1" data-name="Calque 1" xmlns="http://www.w3.org/2000/svg" viewBox="0 0 78.22 50"><defs><style>.cls-1{fill:#fff}</style></defs><path class="cls-1" d="M5.87 0v9.13h7.99V0h5.87v23.31h-5.87v-9.39H5.87v9.39H0V0h5.87ZM39.67 8.93v4.79H29.5v4.79h12v4.79H23.63V0H41.3v4.79H29.5v4.14h10.17ZM54.96 23.31V4.79H44.59V0h16.23v23.31h-5.87ZM5.87 26.69V45.2h22.62v4.79H0v-23.3h5.87ZM36.96 26.69V50h-5.87V26.69h5.87ZM40.88 26.69h5.87l8.15 13.85h.07V26.69h5.87V50h-5.87l-8.15-13.85h-.07V50h-5.87V26.69Z"/><g><path class="cls-1" d="M64.88 50v-5.78c0-3.63 2.34-5.82 6.53-5.82s6.51 2.01 6.51 5.64v5.97H64.87Zm10.36-3.28v-2.1c0-2.04-1.46-2.86-3.83-2.86s-3.85.82-3.85 2.86v2.1h7.68ZM74.1 26.41c2.5 0 4.12 1.9 4.12 5.16s-1.73 5.99-4.73 5.99v-3.32c1.51 0 2.08-1.15 2.08-2.63 0-1.22-.49-1.84-1.17-1.84-1.11 0-1.4 1.3-1.95 3.1-.66 2.28-1.57 4.29-3.9 4.29-2.85 0-3.96-2.23-3.96-5.04 0-3.05 1.61-5.44 4.25-5.53v3.32c-1 .15-1.61.95-1.61 2.21 0 .99.33 1.68 1.08 1.68.88 0 1.17-.73 1.66-2.39.73-2.46 1.42-5 4.12-5ZM67.27 19.23c0 2.15 1.68 2.9 4.12 2.9s4.14-.75 4.14-3.03c0-1.51-.91-2.57-2.17-2.61v2.48h-2.37v-5.88h6.93v2.35l-1.66.33v.04c1.19.62 1.95 1.84 1.95 3.76 0 3.7-2.88 5.91-6.82 5.91s-6.81-2.21-6.81-6.31c0-3.58 2.12-5.57 4.62-5.88v3.36c-.89.24-1.93.77-1.93 2.57ZM64.88 11.17V7.89l7.76-4.56v-.04h-7.76V0h13.05v3.28l-7.75 4.56v.04h7.75v3.28H64.88Z"/></g></svg>